<svg width="32" height="32" viewBox="0 0 32 32" fill="none" xmlns="http://www.w3.org/2000/svg">
<path d="M22.6667 23.9993C22.6667 24.353 22.8072 24.6921 23.0573 24.9422C23.3073 25.1922 23.6465 25.3327 24.0001 25.3327C24.3537 25.3327 24.6928 25.1922 24.9429 24.9422C25.1929 24.6921 25.3334 24.353 25.3334 23.9993C25.3334 23.6457 25.1929 23.3066 24.9429 23.0565C24.6928 22.8065 24.3537 22.666 24.0001 22.666C23.6465 22.666 23.3073 22.8065 23.0573 23.0565C22.8072 23.3066 22.6667 23.6457 22.6667 23.9993ZM14.6667 23.9993C14.6667 24.353 14.8072 24.6921 15.0573 24.9422C15.3073 25.1922 15.6465 25.3327 16.0001 25.3327C16.3537 25.3327 16.6928 25.1922 16.9429 24.9422C17.1929 24.6921 17.3334 24.353 17.3334 23.9993C17.3334 23.6457 17.1929 23.3066 16.9429 23.0565C16.6928 22.8065 16.3537 22.666 16.0001 22.666C15.6465 22.666 15.3073 22.8065 15.0573 23.0565C14.8072 23.3066 14.6667 23.6457 14.6667 23.9993ZM6.66675 23.9993C6.66675 24.353 6.80722 24.6921 7.05727 24.9422C7.30732 25.1922 7.64646 25.3327 8.00008 25.3327C8.3537 25.3327 8.69284 25.1922 8.94289 24.9422C9.19294 24.6921 9.33341 24.353 9.33341 23.9993C9.33341 23.6457 9.19294 23.3066 8.94289 23.0565C8.69284 22.8065 8.3537 22.666 8.00008 22.666C7.64646 22.666 7.30732 22.8065 7.05727 23.0565C6.80722 23.3066 6.66675 23.6457 6.66675 23.9993ZM22.6667 15.9993C22.6667 16.353 22.8072 16.6921 23.0573 16.9422C23.3073 17.1922 23.6465 17.3327 24.0001 17.3327C24.3537 17.3327 24.6928 17.1922 24.9429 16.9422C25.1929 16.6921 25.3334 16.353 25.3334 15.9993C25.3334 15.6457 25.1929 15.3066 24.9429 15.0565C24.6928 14.8065 24.3537 14.666 24.0001 14.666C23.6465 14.666 23.3073 14.8065 23.0573 15.0565C22.8072 15.3066 22.6667 15.6457 22.6667 15.9993ZM14.6667 15.9993C14.6667 16.353 14.8072 16.6921 15.0573 16.9422C15.3073 17.1922 15.6465 17.3327 16.0001 17.3327C16.3537 17.3327 16.6928 17.1922 16.9429 16.9422C17.1929 16.6921 17.3334 16.353 17.3334 15.9993C17.3334 15.6457 17.1929 15.3066 16.9429 15.0565C16.6928 14.8065 16.3537 14.666 16.0001 14.666C15.6465 14.666 15.3073 14.8065 15.0573 15.0565C14.8072 15.3066 14.6667 15.6457 14.6667 15.9993ZM6.66675 15.9993C6.66675 16.353 6.80722 16.6921 7.05727 16.9422C7.30732 17.1922 7.64646 17.3327 8.00008 17.3327C8.3537 17.3327 8.69284 17.1922 8.94289 16.9422C9.19294 16.6921 9.33341 16.353 9.33341 15.9993C9.33341 15.6457 9.19294 15.3066 8.94289 15.0565C8.69284 14.8065 8.3537 14.666 8.00008 14.666C7.64646 14.666 7.30732 14.8065 7.05727 15.0565C6.80722 15.3066 6.66675 15.6457 6.66675 15.9993ZM22.6667 7.99935C22.6667 8.35297 22.8072 8.69211 23.0573 8.94216C23.3073 9.19221 23.6465 9.33268 24.0001 9.33268C24.3537 9.33268 24.6928 9.19221 24.9429 8.94216C25.1929 8.69211 25.3334 8.35297 25.3334 7.99935C25.3334 7.64573 25.1929 7.30659 24.9429 7.05654C24.6928 6.80649 24.3537 6.66602 24.0001 6.66602C23.6465 6.66602 23.3073 6.80649 23.0573 7.05654C22.8072 7.30659 22.6667 7.64573 22.6667 7.99935ZM14.6667 7.99935C14.6667 8.35297 14.8072 8.69211 15.0573 8.94216C15.3073 9.19221 15.6465 9.33268 16.0001 9.33268C16.3537 9.33268 16.6928 9.19221 16.9429 8.94216C17.1929 8.69211 17.3334 8.35297 17.3334 7.99935C17.3334 7.64573 17.1929 7.30659 16.9429 7.05654C16.6928 6.80649 16.3537 6.66602 16.0001 6.66602C15.6465 6.66602 15.3073 6.80649 15.0573 7.05654C14.8072 7.30659 14.6667 7.64573 14.6667 7.99935ZM6.66675 7.99935C6.66675 8.35297 6.80722 8.69211 7.05727 8.94216C7.30732 9.19221 7.64646 9.33268 8.00008 9.33268C8.3537 9.33268 8.69284 9.19221 8.94289 8.94216C9.19294 8.69211 9.33341 8.35297 9.33341 7.99935C9.33341 7.64573 9.19294 7.30659 8.94289 7.05654C8.69284 6.80649 8.3537 6.66602 8.00008 6.66602C7.64646 6.66602 7.30732 6.80649 7.05727 7.05654C6.80722 7.30659 6.66675 7.64573 6.66675 7.99935Z" fill="#FFC700" stroke="#FFC700" stroke-width="2" stroke-linecap="round" stroke-linejoin="round"/>
</svg>
