<svg width="32" height="32" viewBox="0 0 32 32" fill="none" xmlns="http://www.w3.org/2000/svg">
<path d="M16.0001 2.13489C15.9917 2.14864 15.9892 2.14758 15.9805 2.16283C15.857 2.37908 15.7073 2.74127 15.5605 3.18452C15.2665 4.07095 14.9706 5.28889 14.712 6.51095C14.4535 7.73302 14.2303 8.96233 14.0722 9.8912C13.9932 10.3556 13.9303 10.745 13.8873 11.0206C13.8706 11.128 13.8543 11.2354 13.8386 11.343C13.8353 11.3651 13.8322 11.3873 13.8292 11.4095C13.8352 11.4971 13.9468 11.6876 14.3297 11.8741C14.7236 12.066 15.3285 12.2049 16.0002 12.2049C16.6718 12.2049 17.2767 12.066 17.6706 11.8741C18.0535 11.6876 18.1652 11.4972 18.1712 11.4095L18.1618 11.343C18.1508 11.268 18.1343 11.1583 18.113 11.0206C18.07 10.745 18.0072 10.3556 17.9282 9.8912C17.77 8.96233 17.5469 7.73308 17.2882 6.51095C17.0297 5.28883 16.7338 4.07095 16.4398 3.18452C16.293 2.74127 16.1432 2.37914 16.0198 2.16277C16.0111 2.14745 16.0086 2.14839 16.0002 2.13477L16.0001 2.13489ZM5.44172 3.32614C2.95466 5.19127 1.36841 7.69802 1.36841 10.4689C1.36841 12.4023 2.11341 14.2118 3.40878 15.7623L5.10441 10.873C4.39597 9.7822 4.00016 8.56733 4.00016 7.28645C4.00016 5.84995 4.55972 4.5157 5.44166 3.32627L5.44172 3.32614ZM26.5594 3.32714C27.4403 4.51664 28.0009 5.85089 28.0009 7.28739C28.0009 8.5682 27.6051 9.78289 26.8969 10.8735L28.5921 15.7615C29.887 14.2111 30.6317 12.4019 30.6317 10.4688C30.6317 7.69802 29.0455 5.19114 26.5593 3.32708L26.5594 3.32714ZM13.3913 8.06495C11.1292 8.63845 9.5276 10.0581 8.35616 12.4546C6.80041 15.6375 6.1071 20.605 6.08716 27.4324C8.82016 28.9685 11.7957 29.8224 14.8365 29.9802C14.8153 27.594 14.4037 23.821 14.105 21.3746C9.92359 21.0036 8.11516 19.5313 8.11516 19.5313C8.11516 19.5313 8.35122 17.8011 8.51491 17.0353C10.9157 17.8438 13.4434 18.2515 16.0009 18.2365C18.5574 18.2505 21.0851 17.8438 23.4859 17.0353C23.6495 17.8011 23.8858 19.5313 23.8858 19.5313C23.8858 19.5313 22.1378 21.0313 17.8936 21.3843C17.595 23.831 17.1845 27.5974 17.1632 29.9803C20.2041 29.8224 23.1796 28.9685 25.9125 27.4324C25.8927 20.6049 25.1994 15.6375 23.6437 12.4546C22.4724 10.058 20.8707 8.63845 18.6085 8.06495C18.7092 8.60056 18.8054 9.137 18.8971 9.6742C18.9187 9.68577 18.9407 9.6967 18.9618 9.70858C19.7462 10.1448 20.3162 10.803 20.4332 11.6058L20.8088 14.1867L20.7579 14.3116C20.4277 15.1228 19.5867 15.581 18.6889 15.9149C17.7912 16.2489 16.7982 16.4295 16.0047 16.4371H15.9948C15.2017 16.429 14.2087 16.2484 13.3111 15.9146C12.4133 15.5808 11.5723 15.123 11.242 14.3116L11.1912 14.1868L11.5667 11.6058C11.6835 10.8031 12.2535 10.145 13.0379 9.70864C13.0592 9.69676 13.0812 9.68583 13.1027 9.67427C13.1838 9.19927 13.2811 8.65133 13.3913 8.06508L13.3913 8.06495ZM6.36572 10.2636L3.77572 17.7317L5.63166 18.5886C6.01166 15.9567 6.60678 13.775 7.46491 12.0192C7.67303 11.5931 7.89866 11.1936 8.14078 10.8192L6.36572 10.2636ZM25.6352 10.2636L23.8592 10.8195C24.1013 11.1936 24.3268 11.5933 24.535 12.0191C25.3933 13.775 25.9885 15.9568 26.3685 18.5889L28.2253 17.7316L25.6353 10.2635L25.6352 10.2636ZM12.6311 11.4603C12.5911 11.5524 12.5633 11.6494 12.5484 11.7487L12.218 14.0195C12.4022 14.3262 12.9411 14.7185 13.6567 14.9846C14.4328 15.2731 15.357 15.4374 16.0002 15.4448C16.6431 15.4378 17.5671 15.2736 18.3431 14.985C19.0587 14.7188 19.5977 14.3263 19.782 14.0194L19.4515 11.7486C19.4366 11.6493 19.4088 11.5523 19.3688 11.4602C19.3004 11.4838 19.2299 11.5069 19.1582 11.5297C19.097 12.0965 18.6376 12.5065 18.1048 12.766C17.5323 13.0448 16.8023 13.197 16 13.197C15.1975 13.197 14.4675 13.0448 13.8951 12.766C13.3624 12.5065 12.903 12.0965 12.8418 11.5297C12.7699 11.5068 12.6995 11.4838 12.631 11.4601L12.6311 11.4603Z" fill="#FFC700"/>
</svg>
