<svg width="32" height="32" viewBox="0 0 32 32" fill="none" xmlns="http://www.w3.org/2000/svg">
<path d="M29.8525 2.39131C29.8411 2.33603 29.8142 2.28515 29.7749 2.24464C29.7356 2.20412 29.6856 2.17565 29.6307 2.16256C25.97 1.26756 17.5119 4.45693 12.9294 9.03756C12.1121 9.84828 11.367 10.7287 10.7025 11.6688C9.28941 11.5438 7.87628 11.6482 6.67191 12.1732C3.27378 13.6688 2.28441 17.5713 2.00878 19.2501C1.99315 19.3419 1.99904 19.4362 2.02601 19.5254C2.05297 19.6146 2.10027 19.6964 2.16418 19.7642C2.22808 19.8321 2.30686 19.8842 2.39431 19.9164C2.48176 19.9487 2.5755 19.9602 2.66816 19.9501L8.12503 19.3482C8.12892 19.7596 8.15374 20.1705 8.19941 20.5794C8.22687 20.8634 8.35291 21.1287 8.55566 21.3294L10.6688 23.4376C10.8697 23.64 11.1349 23.766 11.4188 23.7938C11.8254 23.8392 12.234 23.8641 12.6432 23.8682L12.0444 29.3182C12.0344 29.4108 12.046 29.5045 12.0783 29.5919C12.1106 29.6793 12.1627 29.758 12.2305 29.8219C12.2983 29.8857 12.38 29.933 12.4692 29.9601C12.5583 29.9871 12.6525 29.9931 12.7444 29.9776C14.42 29.7088 18.3294 28.7194 19.8163 25.3213C20.3413 24.1169 20.4488 22.7107 20.3275 21.3044C21.2699 20.6399 22.1526 19.8946 22.9657 19.0769C27.5625 14.5032 30.7338 6.23381 29.8525 2.39131ZM18.3794 13.6207C17.9597 13.2012 17.6737 12.6667 17.5578 12.0847C17.4419 11.5027 17.5012 10.8994 17.7282 10.3511C17.9552 9.80278 18.3397 9.33413 18.8331 9.0044C19.3265 8.67466 19.9066 8.49867 20.5 8.49867C21.0935 8.49867 21.6736 8.67466 22.1669 9.0044C22.6603 9.33413 23.0449 9.80278 23.2719 10.3511C23.4989 10.8994 23.5582 11.5027 23.4422 12.0847C23.3263 12.6667 23.0404 13.2012 22.6207 13.6207C22.3423 13.8994 22.0118 14.1206 21.6479 14.2714C21.284 14.4223 20.8939 14.5 20.5 14.5C20.1061 14.5 19.7161 14.4223 19.3522 14.2714C18.9883 14.1206 18.6577 13.8994 18.3794 13.6207Z" fill="#FFC700"/>
<path d="M10.525 24.9644C10.1825 25.3075 9.63313 25.4413 8.97188 25.5556C7.48625 25.8088 6.17437 24.525 6.44125 23.0231C6.54312 22.4538 6.84438 21.6556 7.03188 21.4681C7.07286 21.4279 7.10014 21.3759 7.10984 21.3193C7.11954 21.2627 7.11116 21.2045 7.08591 21.153C7.06065 21.1014 7.0198 21.0591 6.96915 21.0321C6.9185 21.0051 6.86063 20.9948 6.80375 21.0025C5.97297 21.1042 5.20008 21.4808 4.60813 22.0725C3.13875 23.5431 3 29 3 29C3 29 8.46 28.8613 9.92937 27.3906C10.5229 26.7991 10.9 26.0251 11 25.1931C11.0231 24.9319 10.705 24.7763 10.525 24.9644Z" fill="#FFC700"/>
</svg>
