<svg width="32" height="32" viewBox="0 0 32 32" fill="none" xmlns="http://www.w3.org/2000/svg">
<path d="M23.3333 11.5302V10.834C23.3333 7.69898 18.6045 5.33398 12.3333 5.33398C6.062 5.33398 1.33325 7.69898 1.33325 10.834V15.834C1.33325 18.4452 4.6145 20.5202 9.33325 21.1415V21.834C9.33325 24.969 14.062 27.334 20.3333 27.334C26.6045 27.334 31.3333 24.969 31.3333 21.834V16.834C31.3333 14.2465 28.1558 12.169 23.3333 11.5302ZM7.33325 18.6927C4.8845 18.009 3.33325 16.8827 3.33325 15.834V14.0752C4.35325 14.7977 5.7195 15.3802 7.33325 15.7715V18.6927ZM17.3333 15.7715C18.947 15.3802 20.3133 14.7977 21.3333 14.0752V15.834C21.3333 16.8827 19.782 18.009 17.3333 18.6927V15.7715ZM15.3333 24.6927C12.8845 24.009 11.3333 22.8827 11.3333 21.834V21.3127C11.662 21.3252 11.9945 21.334 12.3333 21.334C12.8183 21.334 13.292 21.3177 13.757 21.2902C14.2736 21.4751 14.7998 21.632 15.3333 21.7602V24.6927ZM15.3333 19.1152C14.34 19.262 13.3373 19.3351 12.3333 19.334C11.3292 19.3351 10.3265 19.262 9.33325 19.1152V16.1415C10.328 16.271 11.3301 16.3353 12.3333 16.334C13.3364 16.3353 14.3385 16.271 15.3333 16.1415V19.1152ZM23.3333 25.1152C21.3439 25.4068 19.3226 25.4068 17.3333 25.1152V22.134C18.3277 22.2677 19.3299 22.3345 20.3333 22.334C21.3364 22.3353 22.3385 22.271 23.3333 22.1415V25.1152ZM29.3333 21.834C29.3333 22.8827 27.782 24.009 25.3333 24.6927V21.7715C26.947 21.3802 28.3133 20.7977 29.3333 20.0752V21.834Z" fill="#FFC700"/>
</svg>
